<?xml version="1.0" encoding="UTF-8"?>
<svg xmlns="http://www.w3.org/2000/svg" xmlns:xlink="http://www.w3.org/1999/xlink" width="40pt" height="40pt" viewBox="0 0 40 40" version="1.1">
<g id="surface16278342">
<path style=" stroke:none;fill-rule:nonzero;fill:rgb(36.470589%,76.078433%,68.627453%);fill-opacity:1;" d="M 20 1.601562 C 9.855469 1.601562 1.601562 9.855469 1.601562 20 C 1.601562 30.144531 9.855469 38.398438 20 38.398438 C 30.144531 38.398438 38.398438 30.144531 38.398438 20 C 38.398438 16.351562 37.328125 12.953125 35.492188 10.089844 L 34.394531 11.382812 C 35.910156 13.90625 36.800781 16.847656 36.800781 20 C 36.800781 29.261719 29.261719 36.800781 20 36.800781 C 10.738281 36.800781 3.199219 29.261719 3.199219 20 C 3.199219 10.738281 10.738281 3.199219 20 3.199219 C 24.355469 3.199219 28.316406 4.878906 31.304688 7.609375 L 32.351562 6.371094 C 29.082031 3.40625 24.746094 1.601562 20 1.601562 Z M 34.589844 6.203125 L 19.132812 24.445312 L 12.625 18.375 L 11.535156 19.546875 L 19.265625 26.757812 L 35.8125 7.238281 Z M 34.589844 6.203125 "/>
</g>
</svg>
