<?xml version="1.0" encoding="UTF-8"?>
<svg xmlns="http://www.w3.org/2000/svg" xmlns:xlink="http://www.w3.org/1999/xlink" width="24pt" height="24pt" viewBox="0 0 24 24" version="1.1">
<g id="surface15250797">
<path style=" stroke:none;fill-rule:nonzero;fill:rgb(80.000001%,80.000001%,80.000001%);fill-opacity:1;" d="M 19.492188 3.484375 C 19.226562 3.492188 18.976562 3.601562 18.792969 3.792969 L 12 10.585938 L 5.207031 3.792969 C 5.019531 3.597656 4.757812 3.488281 4.488281 3.488281 C 4.082031 3.492188 3.714844 3.738281 3.5625 4.113281 C 3.410156 4.492188 3.5 4.921875 3.792969 5.207031 L 10.585938 12 L 3.792969 18.792969 C 3.53125 19.042969 3.425781 19.417969 3.519531 19.765625 C 3.609375 20.117188 3.882812 20.390625 4.234375 20.480469 C 4.582031 20.574219 4.957031 20.46875 5.207031 20.207031 L 12 13.414062 L 18.792969 20.207031 C 19.042969 20.46875 19.417969 20.574219 19.765625 20.480469 C 20.117188 20.390625 20.390625 20.117188 20.480469 19.765625 C 20.574219 19.417969 20.46875 19.042969 20.207031 18.792969 L 13.414062 12 L 20.207031 5.207031 C 20.503906 4.921875 20.597656 4.480469 20.4375 4.101562 C 20.28125 3.71875 19.902344 3.476562 19.492188 3.484375 Z M 19.492188 3.484375 "/>
</g>
</svg>
